# Blender 4.4.3
# www.blender.org
mtllib Yut_Front(X).mtl
o Cylinder
v 0.000000 -0.050000 -0.015000
v 0.000000 0.050000 -0.015000
v 0.002926 -0.050000 -0.014712
v 0.002926 0.050000 -0.014712
v 0.005740 -0.050000 -0.013858
v 0.005740 0.050000 -0.013858
v 0.008334 -0.050000 -0.012472
v 0.008334 0.050000 -0.012472
v 0.010607 -0.050000 -0.010607
v 0.010607 0.050000 -0.010607
v 0.012472 -0.050000 -0.008334
v 0.012472 0.050000 -0.008334
v 0.013858 -0.050000 -0.005740
v 0.013858 0.050000 -0.005740
v 0.014712 -0.050000 -0.002926
v 0.014712 0.050000 -0.002926
v 0.015000 -0.050000 0.000000
v 0.015000 0.050000 0.000000
v 0.014712 -0.050000 0.002926
v 0.014712 0.050000 0.002926
v 0.013858 -0.050000 0.005740
v 0.013858 0.050000 0.005740
v 0.012472 -0.050000 0.008334
v 0.012472 0.050000 0.008334
v 0.010607 -0.050000 0.010607
v 0.010607 0.050000 0.010607
v 0.008334 -0.050000 0.012472
v 0.008334 0.050000 0.012472
v 0.005740 -0.050000 0.013858
v 0.005740 0.050000 0.013858
v 0.002926 -0.050000 0.014712
v 0.002926 0.050000 0.014712
v 0.000000 -0.050000 0.015000
v 0.000000 0.050000 0.015000
v -0.002926 -0.050000 0.014712
v -0.002926 0.050000 0.014712
v -0.005740 -0.050000 0.013858
v -0.005740 0.050000 0.013858
v -0.008334 -0.050000 0.012472
v -0.008334 0.050000 0.012472
v -0.010607 -0.050000 0.010607
v -0.010607 0.050000 0.010607
v -0.012472 -0.050000 0.008334
v -0.012472 0.050000 0.008334
v -0.013858 -0.050000 0.005740
v -0.013858 0.050000 0.005740
v -0.014712 -0.050000 0.002926
v -0.014712 0.050000 0.002926
v -0.015000 -0.050000 0.000000
v -0.015000 0.050000 0.000000
v -0.014712 -0.050000 -0.002926
v -0.014712 0.050000 -0.002926
v -0.013858 -0.050000 -0.005740
v -0.013858 0.050000 -0.005740
v -0.012472 -0.050000 -0.008334
v -0.012472 0.050000 -0.008334
v -0.010607 -0.050000 -0.010607
v -0.010607 0.050000 -0.010607
v -0.008334 -0.050000 -0.012472
v -0.008334 0.050000 -0.012472
v -0.005740 -0.050000 -0.013858
v -0.005740 0.050000 -0.013858
v -0.002926 -0.050000 -0.014712
v -0.002926 0.050000 -0.014712
vn 0.0980 -0.0000 -0.9952
vn 0.2903 -0.0000 -0.9569
vn 0.4714 -0.0000 -0.8819
vn 0.6344 -0.0000 -0.7730
vn 0.7730 -0.0000 -0.6344
vn 0.8819 -0.0000 -0.4714
vn 0.9569 -0.0000 -0.2903
vn 0.9952 -0.0000 -0.0980
vn 0.9952 -0.0000 0.0980
vn 0.9569 -0.0000 0.2903
vn 0.8819 -0.0000 0.4714
vn 0.7730 -0.0000 0.6344
vn 0.6344 -0.0000 0.7730
vn 0.4714 -0.0000 0.8819
vn 0.2903 -0.0000 0.9569
vn 0.0980 -0.0000 0.9952
vn -0.0980 -0.0000 0.9952
vn -0.2903 -0.0000 0.9569
vn -0.4714 -0.0000 0.8819
vn -0.6344 -0.0000 0.7730
vn -0.7730 -0.0000 0.6344
vn -0.8819 -0.0000 0.4714
vn -0.9569 -0.0000 0.2903
vn -0.9952 -0.0000 0.0980
vn -0.9952 -0.0000 -0.0980
vn -0.9569 -0.0000 -0.2903
vn -0.8819 -0.0000 -0.4714
vn -0.7730 -0.0000 -0.6344
vn -0.6344 -0.0000 -0.7730
vn -0.4714 -0.0000 -0.8819
vn -0.0000 1.0000 -0.0000
vn -0.2903 -0.0000 -0.9569
vn -0.0980 -0.0000 -0.9952
vn -0.0000 -1.0000 -0.0000
vt 0.921295 0.023346
vt 0.921295 0.959609
vt 0.862778 0.959609
vt 0.862778 0.023346
vt 0.918513 0.018091
vt 0.918513 0.979069
vt 0.858452 0.979069
vt 0.858452 0.018091
vt 0.798391 0.979069
vt 0.798391 0.018091
vt 0.738330 0.979069
vt 0.738330 0.018091
vt 0.678269 0.979069
vt 0.678269 0.018091
vt 0.618208 0.979069
vt 0.618208 0.018091
vt 0.558147 0.979069
vt 0.558147 0.018091
vt 0.498086 0.979069
vt 0.498086 0.018091
vt 0.438024 0.979069
vt 0.438024 0.018091
vt 0.377963 0.979069
vt 0.377963 0.018091
vt 0.317902 0.979069
vt 0.317902 0.018091
vt 0.257841 0.979069
vt 0.257841 0.018091
vt 0.197780 0.979069
vt 0.197780 0.018091
vt 0.137719 0.979069
vt 0.137719 0.018091
vt 0.077658 0.979069
vt 0.077658 0.018091
vt 0.992520 0.032190
vt 0.992520 0.959287
vt 0.934576 0.959287
vt 0.934576 0.032190
vt 0.876633 0.959287
vt 0.876633 0.032190
vt 0.818689 0.959287
vt 0.818689 0.032190
vt 0.760746 0.959287
vt 0.760746 0.032190
vt 0.702802 0.959287
vt 0.702802 0.032190
vt 0.644859 0.959287
vt 0.644859 0.032190
vt 0.586915 0.959287
vt 0.586915 0.032190
vt 0.528972 0.959287
vt 0.528972 0.032190
vt 0.471028 0.959287
vt 0.471028 0.032190
vt 0.413085 0.959287
vt 0.413085 0.032190
vt 0.355141 0.959287
vt 0.355141 0.032190
vt 0.297198 0.959287
vt 0.297198 0.032190
vt 0.239254 0.959287
vt 0.239254 0.032190
vt 0.181311 0.959287
vt 0.181311 0.032190
vt 0.123367 0.959287
vt 0.123367 0.032190
vt 0.818668 0.888297
vt 0.736791 0.943005
vt 0.645816 0.980689
vt 0.549236 0.999900
vt 0.450764 0.999900
vt 0.354185 0.980689
vt 0.263209 0.943006
vt 0.181332 0.888298
vt 0.111702 0.818668
vt 0.056994 0.736792
vt 0.019311 0.645816
vt 0.000100 0.549236
vt 0.000100 0.450765
vt 0.019311 0.354185
vt 0.056994 0.263209
vt 0.111702 0.181333
vt 0.181332 0.111703
vt 0.263208 0.056995
vt 0.354184 0.019311
vt 0.450764 0.000100
vt 0.549235 0.000100
vt 0.645815 0.019311
vt 0.736791 0.056994
vt 0.818667 0.111702
vt 0.888297 0.181332
vt 0.943005 0.263208
vt 0.980689 0.354184
vt 0.999900 0.450764
vt 0.999900 0.549235
vt 0.980689 0.645815
vt 0.943005 0.736791
vt 0.888298 0.818667
vt 0.065424 0.959287
vt 0.065424 0.032190
vt 0.007480 0.959287
vt 0.007480 0.032190
vt 0.496094 0.981940
vt 0.590878 0.972605
vt 0.682019 0.944957
vt 0.766016 0.900061
vt 0.839639 0.839639
vt 0.900060 0.766016
vt 0.944957 0.682019
vt 0.972605 0.590878
vt 0.981940 0.496094
vt 0.972605 0.401310
vt 0.944957 0.310168
vt 0.900060 0.226172
vt 0.839639 0.152548
vt 0.766016 0.092127
vt 0.682019 0.047230
vt 0.590878 0.019583
vt 0.496094 0.010247
vt 0.401310 0.019583
vt 0.310168 0.047230
vt 0.226172 0.092127
vt 0.152548 0.152548
vt 0.092127 0.226172
vt 0.047230 0.310168
vt 0.019583 0.401310
vt 0.010247 0.496094
vt 0.019583 0.590878
vt 0.047230 0.682019
vt 0.092127 0.766016
vt 0.152548 0.839639
vt 0.226172 0.900061
vt 0.310168 0.944957
vt 0.401310 0.972605
s 0
usemtl Material
f 4/67/31 2/68/31 64/69/31 62/70/31 60/71/31 58/72/31 56/73/31 54/74/31 52/75/31 50/76/31 48/77/31 46/78/31 44/79/31 42/80/31 40/81/31 38/82/31 36/83/31 34/84/31 32/85/31 30/86/31 28/87/31 26/88/31 24/89/31 22/90/31 20/91/31 18/92/31 16/93/31 14/94/31 12/95/31 10/96/31 8/97/31 6/98/31
f 1/103/34 3/104/34 5/105/34 7/106/34 9/107/34 11/108/34 13/109/34 15/110/34 17/111/34 19/112/34 21/113/34 23/114/34 25/115/34 27/116/34 29/117/34 31/118/34 33/119/34 35/120/34 37/121/34 39/122/34 41/123/34 43/124/34 45/125/34 47/126/34 49/127/34 51/128/34 53/129/34 55/130/34 57/131/34 59/132/34 61/133/34 63/134/34
usemtl PlainSide_1
f 1/1/1 2/2/1 4/3/1 3/4/1
f 3/5/2 4/6/2 6/7/2 5/8/2
f 5/8/3 6/7/3 8/9/3 7/10/3
f 7/10/4 8/9/4 10/11/4 9/12/4
f 9/12/5 10/11/5 12/13/5 11/14/5
f 11/14/6 12/13/6 14/15/6 13/16/6
f 13/16/7 14/15/7 16/17/7 15/18/7
f 15/18/8 16/17/8 18/19/8 17/20/8
f 17/20/9 18/19/9 20/21/9 19/22/9
f 19/22/10 20/21/10 22/23/10 21/24/10
f 21/24/11 22/23/11 24/25/11 23/26/11
f 23/26/12 24/25/12 26/27/12 25/28/12
f 25/28/13 26/27/13 28/29/13 27/30/13
f 27/30/14 28/29/14 30/31/14 29/32/14
f 29/32/15 30/31/15 32/33/15 31/34/15
usemtl Material.001
f 31/35/16 32/36/16 34/37/16 33/38/16
f 33/38/17 34/37/17 36/39/17 35/40/17
f 35/40/18 36/39/18 38/41/18 37/42/18
f 37/42/19 38/41/19 40/43/19 39/44/19
f 39/44/20 40/43/20 42/45/20 41/46/20
f 41/46/21 42/45/21 44/47/21 43/48/21
f 43/48/22 44/47/22 46/49/22 45/50/22
f 45/50/23 46/49/23 48/51/23 47/52/23
f 47/52/24 48/51/24 50/53/24 49/54/24
f 49/54/25 50/53/25 52/55/25 51/56/25
f 51/56/26 52/55/26 54/57/26 53/58/26
f 53/58/27 54/57/27 56/59/27 55/60/27
f 55/60/28 56/59/28 58/61/28 57/62/28
f 57/62/29 58/61/29 60/63/29 59/64/29
f 59/64/30 60/63/30 62/65/30 61/66/30
f 61/66/32 62/65/32 64/99/32 63/100/32
f 63/100/33 64/99/33 2/101/33 1/102/33
